# xmcd
#
# Track frame offsets:
# 150
# 13723
# 29044
# 41423
# 58409
# 71613
# 81028
# 93940
# 111202
# 123885
# 137049
# 148678
# 164769
# 177898
#
# Disc length: 2572 seconds
#
#
# Revision: 0
# Processed by: cddbd v1.4PL0 Copyright (c) Steve Scherf et al.
# Submitted via: FreeRIP 2.51 
#
DISCID=c70a0a0e
DTITLE=Savannah - Love, me
DYEAR=1900
DGENRE=country
TTITLE0=this heart
TTITLE1=back to loving me again
TTITLE2=rockin'the boat
TTITLE3=if blue tears were silver
TTITLE4=it's gettin' better every day
TTITLE5=I'll see you in my dreams
TTITLE6=mi vida loca
TTITLE7=love, me
TTITLE8=greener pastures
TTITLE9=you ain't what you ain't
TTITLE10=rub-a-dubbin'
TTITLE11=lay down beside me
TTITLE12=stuck on you
TTITLE13=never knew lonely
EXTD=
EXTT0=
EXTT1=
EXTT2=
EXTT3=
EXTT4=
EXTT5=
EXTT6=
EXTT7=
EXTT8=
EXTT9=
EXTT10=
EXTT11=
EXTT12=
EXTT13=
PLAYORDER=
